# xmcd CD database file
#
# Track frame offsets:
#	150
#	14107
#	27777
#	40285
#	54697
#	68584
#	82621
#	94867
#	106754
#	118966
#	131794
#	145638
#	158400
#
# Disc length: 2285 seconds
#
# Revision: 0
# Processed by: cddbd v1.5.2PL0 Copyright (c) Steve Scherf et al.
# Submitted via: CDex 1.60beta1-cs1
#
DISCID=a308eb0d
DTITLE=Furry Lewis - Furrys Blues
DYEAR=1900
DGENRE=Blues
TTITLE0=Casey Jones Part 1
TTITLE1=Casey Jones Part 2
TTITLE2=Rock Island Blues
TTITLE3=I Will Turn Your Money Green
TTITLE4=Cannonball Blues
TTITLE5=Mistreatin Mama
TTITLE6=Why Dont You Come Home Blues
TTITLE7=Jellyroll
TTITLE8=Mean Old Bedbug Blues
TTITLE9=Good Looking Girl Blues
TTITLE10=Judge Harsh Blues
TTITLE11=Falling Down Blues
TTITLE12=Everybodys Blues
EXTD=
EXTT0=
EXTT1=
EXTT2=
EXTT3=
EXTT4=
EXTT5=
EXTT6=
EXTT7=
EXTT8=
EXTT9=
EXTT10=
EXTT11=
EXTT12=
PLAYORDER=
